{"title":"LMFAO Ft. Lauren Bennett &amp; GoonRock - Party Rock Anthem [Mus","uid":8446380,"size":126326557,"categoryP":"video","categoryS":"music_videos","magnet":"?xt=urn:btih:b2dc4a3d485322d99ab4a4df5552c38490d04222&amp;dn=LMFAO+Ft.+Lauren+Bennett+%26amp%3B+GoonRock+-+Party+Rock+Anthem+%5BMus&amp;tr=udp%3A%2F%2Ftracker.openbittorrent.com%3A80&amp;tr=udp%3A%2F%2Fopen.demonii.com%3A1337&amp;tr=udp%3A%2F%2Ftracker.coppersurfer.tk%3A6969&amp;tr=udp%3A%2F%2Fexodus.desync.com%3A6969","seeders":0,"leechers":0,"uploader":"Sbyky","files":-1,"time":1367898977,"description":"[IMG]http://www.shotpix.com/images/42128778558620162921.jpg[/IMG]\n\nGeneral\nComplete name                            : LMFAO Ft. Lauren Bennett &amp; GoonRock - Party Rock Anthem [Music Video] 720p [Sbyky].mp4\nFormat                                   : MPEG-4\nFormat profile                           : Base Media / Version 2\nCodec ID                                 : mp42\nFile size                                : 120 MiB\nDuration                                 : 6mn 15s\nOverall bit rate mode                    : Variable\nOverall bit rate                         : 2 692 Kbps\nEncoded date                             : UTC 2013-04-08 05:13:39\nTagged date                              : UTC 2013-04-08 05:13:39\n\nVideo\nID                                       : 1\nFormat                                   : AVC\nFormat/Info                              : Advanced Video Codec\nFormat profile                           : &lt;a class=&quot;__cf_email__&quot; href=&quot;/cdn-cgi/l/email-protection&quot; data-cfemail=&quot;8ac2e3ede2cac6b9a4bb&quot;&gt;[email&amp;#160;protected]&lt;/a&gt;&lt;script data-cfhash='f9e31' type=&quot;text/javascript&quot;&gt;\n/* &lt;![CDATA[ */!function(){try{var t=&quot;currentScript&quot;in document?document.currentScript:function(){for(var t=document.getElementsByTagName(&quot;script&quot;),e=t.length;e--;)if(t[e].getAttribute(&quot;data-cfhash&quot;))return t[e]}();if(t&amp;&amp;t.previousSibling){var e,r,n,i,c=t.previousSibling,a=c.getAttribute(&quot;data-cfemail&quot;);if(a){for(e=&quot;&quot;,r=parseInt(a.substr(0,2),16),n=2;a.length-n;n+=2)i=parseInt(a.substr(n,2),16)^r,e+=String.fromCharCode(i);e=document.createTextNode(e),c.parentNode.replaceChild(e,c)}t.parentNode.removeChild(t);}}catch(u){}}()/* ]]&gt; */&lt;/script&gt;\nFormat settings, CABAC                   : Yes\nFormat settings, ReFrames                : 1 frame\nFormat settings, GOP                     : M=1, N=60\nCodec ID                                 : avc1\nCodec ID/Info                            : Advanced Video Coding\nDuration                                 : 6mn 15s\nBit rate                                 : 2 498 Kbps\nMaximum bit rate                         : 4 634 Kbps\nWidth                                    : 1 280 pixels\nHeight                                   : 720 pixels\nDisplay aspect ratio                     : 16:9\nFrame rate mode                          : Constant\nFrame rate                               : 23.976 fps\nColor space                              : YUV\nChroma subsampling                       : 4:2:0\nBit depth                                : 8 bits\nScan type                                : Progressive\nBits/(Pixel*Frame)                       : 0.113\nStream size                              : 112 MiB (93%)\nTagged date                              : UTC 2013-04-08 05:13:46\n\nAudio\nID                                       : 2\nFormat                                   : AAC\nFormat/Info                              : Advanced Audio Codec\nFormat profile                           : LC\nCodec ID                                 : 40\nDuration                                 : 6mn 15s\nBit rate mode                            : Variable\nBit rate                                 : 192 Kbps\nMaximum bit rate                         : 202 Kbps\nChannel(s)                               : 2 channels\nChannel positions                        : Front: L R\nSampling rate                            : 44.1 KHz\nCompression mode                         : Lossy\nStream size                              : 8.59 MiB (7%)\nTitle                                    : IsoMedia File Produced by Google, 5-11-2011\nEncoded date                             : UTC 2013-04-08 05:13:44\nTagged date                              : UTC 2013-04-08 05:13:46\n\nShared By Sbyky\n[IMG]http://www.shotpix.com/images/76014917432015785852.gif[/IMG]\n[IMG]http://www.shotpix.com/images/54100788659511547411.gif[/IMG]","torrent":{"xt":"urn:btih:b2dc4a3d485322d99ab4a4df5552c38490d04222","amp;dn":"LMFAO+Ft.+Lauren+Bennett+%26amp%3B+GoonRock+-+Party+Rock+Anthem+%5BMus","amp;tr":["udp%3A%2F%2Ftracker.openbittorrent.com%3A80","udp%3A%2F%2Fopen.demonii.com%3A1337","udp%3A%2F%2Ftracker.coppersurfer.tk%3A6969","udp%3A%2F%2Fexodus.desync.com%3A6969"],"infoHash":"b2dc4a3d485322d99ab4a4df5552c38490d04222","infoHashBuffer":{"type":"Buffer","data":[178,220,74,61,72,83,34,217,154,180,164,223,85,82,195,132,144,208,66,34]},"announce":[],"urlList":[]}}